<svg xmlns="http://www.w3.org/2000/svg" viewBox="0 0 30 30"><defs><style>.cls-1{fill:#333;}</style></defs><g id="圖層_2" data-name="圖層 2"><g id="圖層_1-2" data-name="圖層 1"><g id="line"><path id="Path_14" data-name="Path 14" class="cls-1" d="M0,12.91c0,6.38,5.28,11.75,12.49,12.76a1.35,1.35,0,0,1,.59.21,13.36,13.36,0,0,1-.23,2.1c-.25,1.64.8,2.5,2.54,1.74s8.36-5.18,11.38-8.84c3.32-3.82,4.12-8.44,2.2-12.66C22.9-5.12,0-1.27,0,12.91Zm25.35,6.76C22.6,23,16.41,27.16,14.74,28c.22-1.73.85-3.52-1.92-4.13C6.48,22.93,1.87,18.35,1.87,12.91,1.87.75,22-2.52,27.27,9,28.87,12.52,28.18,16.41,25.35,19.67Z"/><path id="Path_15" data-name="Path 15" class="cls-1" d="M9,15.44H7.52V10.52a.89.89,0,0,0-1.78,0v5.8a.89.89,0,0,0,.89.89H9a.89.89,0,0,0,0-1.77Z"/><path id="Path_16" data-name="Path 16" class="cls-1" d="M10.84,10.53c.27,4.46-.65,6.68.89,6.68a.89.89,0,0,0,.89-.89V10.53a.89.89,0,0,0-1.78,0Z"/><path id="Path_17" data-name="Path 17" class="cls-1" d="M23.29,11.42a.89.89,0,1,0,0-1.78H21a.89.89,0,0,0-.89.89v5.8a.89.89,0,0,0,.89.89h2.32a.89.89,0,0,0,0-1.78H21.86V14.32h1.43a.89.89,0,0,0,0-1.78H21.86V11.42Z"/><path id="Path_18" data-name="Path 18" class="cls-1" d="M17.12,10.52v2.59l-1.83-3a.89.89,0,0,0-1.65.46v5.8a.89.89,0,0,0,1.78,0V13.74l1.82,3a.91.91,0,0,0,.77.43.85.85,0,0,0,.23,0,.88.88,0,0,0,.66-.85V10.52a.89.89,0,0,0-1.78,0Z"/></g></g></g></svg>