<svg xmlns="http://www.w3.org/2000/svg" width="30" height="30" viewBox="0 0 30 30">
  <g id="Group_1832" data-name="Group 1832" transform="translate(-816 -266)">
    <g id="line" transform="translate(816 266)">
      <path id="Path_14" data-name="Path 14" d="M116.8,46.871c0,6.38,5.284,11.749,12.491,12.754a1.392,1.392,0,0,1,.594.217,13.2,13.2,0,0,1-.236,2.094c-.246,1.646.8,2.5,2.539,1.741,1.645-.722,8.364-5.183,11.387-8.837,3.317-3.824,4.119-8.438,2.2-12.661C139.7,28.84,116.8,32.686,116.8,46.871Zm25.347,6.754c-2.752,3.326-8.937,7.49-10.608,8.284.216-1.726.849-3.523-1.916-4.131-6.345-.885-10.95-5.472-10.95-10.906,0-12.163,20.154-15.432,25.394-3.915,1.6,3.524.91,7.407-1.92,10.668Z" transform="translate(-116.803 -33.958)" fill="#fcfcfc"/>
      <path id="Path_15" data-name="Path 15" d="M125.5,47.512h-1.429V42.6a.889.889,0,0,0-1.778,0v5.8a.889.889,0,0,0,.889.888H125.5A.889.889,0,0,0,125.5,47.512Z" transform="translate(-116.555 -32.075)" fill="#fcfcfc"/>
      <path id="Path_16" data-name="Path 16" d="M126.71,42.6c.265,4.466-.653,6.686.888,6.686a.889.889,0,0,0,.889-.888V42.6a.889.889,0,0,0-1.777,0Z" transform="translate(-115.872 -32.073)" fill="#fcfcfc"/>
      <path id="Path_17" data-name="Path 17" d="M137.644,43.493a.889.889,0,0,0,0-1.778h-2.318a.89.89,0,0,0-.889.889v5.8a.889.889,0,0,0,.889.888h2.318a.889.889,0,0,0,0-1.777h-1.429V46.392h1.429a.889.889,0,0,0,0-1.777h-1.429V43.493Z" transform="translate(-114.359 -32.075)" fill="#fcfcfc"/>
      <path id="Path_18" data-name="Path 18" d="M132.393,42.6v2.588l-1.827-3.044a.89.89,0,0,0-1.651.458v5.8a.889.889,0,0,0,1.777,0V45.814l1.827,3.044a.89.89,0,0,0,.763.431.913.913,0,0,0,.236-.031.89.89,0,0,0,.652-.857V42.6a.889.889,0,0,0-1.777,0Z" transform="translate(-115.277 -32.075)" fill="#fcfcfc"/>
    </g>
  </g>
</svg>
