<svg xmlns="http://www.w3.org/2000/svg" viewBox="0 0 25.41 22.66"><defs><style>.cls-1{fill:#333;}</style></defs><g id="圖層_2" data-name="圖層 2"><g id="圖層_1-2" data-name="圖層 1"><g id="logo_-_1" data-name="logo - 1"><g id="Group_387" data-name="Group 387"><g id="Group_386" data-name="Group 386"><g id="Group_384" data-name="Group 384"><path id="Path_270" data-name="Path 270" class="cls-1" d="M18.91,1.14A11.26,11.26,0,0,0,15.25.22a10.74,10.74,0,0,0-1.88,0,10.69,10.69,0,0,0-1.85.32A11.09,11.09,0,0,0,8.13,2.11,11,11,0,0,0,5.45,4.69,11.31,11.31,0,0,0,3.79,8,11,11,0,0,0,6,18.41,10.89,10.89,0,0,0,12.37,22a11,11,0,0,0,12.07-6.68,11.26,11.26,0,0,0,.39-7.4,11.52,11.52,0,0,1,.46,1.84,11.08,11.08,0,0,1,.12,1.91,11,11,0,0,1-.19,1.9,10.82,10.82,0,0,1-.52,1.85,11.34,11.34,0,1,1-19.6-11A11.52,11.52,0,0,1,7.93,1.81,11.12,11.12,0,0,1,11.45.29,11.24,11.24,0,0,1,18.91,1.14Z"/><path id="Path_271" data-name="Path 271" class="cls-1" d="M22.56,4.8A.56.56,0,0,0,23,4.56a.92.92,0,0,0,.17-.45A.63.63,0,0,0,23,3.63a.56.56,0,0,0-.47-.17.73.73,0,0,0-.44.21.7.7,0,0,0-.16.44.8.8,0,0,0,.14.45A.64.64,0,0,0,22.56,4.8Zm0,0A.91.91,0,0,1,22,4.65a.68.68,0,0,1-.27-.54A.73.73,0,0,1,22,3.55a.69.69,0,0,1,.56-.2.84.84,0,0,1,.51.24.76.76,0,0,1,.27.52.62.62,0,0,1-.24.53A.9.9,0,0,1,22.56,4.82Z"/></g><g id="Group_385" data-name="Group 385"><path id="Path_272" data-name="Path 272" class="cls-1" d="M0,16.05H0l.1,0h0s0,0,0,0a.39.39,0,0,1,0,.26s0,0,0,0a.45.45,0,0,0-.07-.18H0l.1,0h0c0,.11,0,.22,0,.33s0,.11,0,.16l0,.16,0,.16L.3,17l.06.15a.61.61,0,0,0,.07.14,1.71,1.71,0,0,0,.53.6,1.88,1.88,0,0,0,.74.29A3.46,3.46,0,0,0,3.33,18a9.4,9.4,0,0,0,3-1.66c.22-.18.44-.36.65-.56s.43-.38.62-.59a6.64,6.64,0,0,0,.56-.63,3.18,3.18,0,0,0,.41-.66.49.49,0,0,0,0-.47s0-.05-.13-.05a.7.7,0,0,0-.32.05,3.78,3.78,0,0,0-1.35.87,3.54,3.54,0,0,0-.53.63,1.51,1.51,0,0,0-.27.7.55.55,0,0,0,.33.53,2.15,2.15,0,0,0,.79.21,6,6,0,0,0,3.33-.74,16.26,16.26,0,0,0,1.53-.86l.74-.48.72-.5a25.93,25.93,0,0,0,2.74-2.18,9,9,0,0,0,1.12-1.27A3.35,3.35,0,0,0,17.94,9V8.83a.17.17,0,0,1,0-.07.14.14,0,0,1,0-.06s0,0,0,0,0,0,0-.05-.05-.06-.09-.08a1,1,0,0,0-.59-.15,2.75,2.75,0,0,0-1.42.53A6.77,6.77,0,0,0,14.54,10a13.27,13.27,0,0,0-1,1.35,14.75,14.75,0,0,0-.86,1.49c-.12.25-.24.52-.36.78s-.2.52-.29.78A5.49,5.49,0,0,0,11.74,16a1.65,1.65,0,0,0,.55,1.3,2,2,0,0,0,1.43.41,5.11,5.11,0,0,0,1.63-.39l.2-.08.15-.06h0l.09,0,.18-.08.35-.17.65-.32c.37-.19.83-.45,1.2-.67a7.17,7.17,0,0,1,.75-.46l-.72.56s-.39.31-.85.63c-.22.17-.46.33-.64.45l-.3.19-.34.2-.18.09,0,0-.12.06-.2.1a8.43,8.43,0,0,1-.83.33,3.76,3.76,0,0,1-1.85.2,2.18,2.18,0,0,1-.92-.37,2.13,2.13,0,0,1-.7-.76,2.93,2.93,0,0,1-.27-1,5,5,0,0,1,0-.95,7.75,7.75,0,0,1,.45-1.78,14.07,14.07,0,0,1,1.71-3.14A10.27,10.27,0,0,1,14.35,9a6,6,0,0,1,1.52-1.07,4.37,4.37,0,0,1,.46-.18,2.84,2.84,0,0,1,.49-.1,2.21,2.21,0,0,1,1.05.1,1.26,1.26,0,0,1,.26.13,1.16,1.16,0,0,1,.24.2l.11.13s.05.09.07.14a1,1,0,0,1,.11.29,1.86,1.86,0,0,1-.15,1.07,6.56,6.56,0,0,1-.47.81c-.09.12-.18.25-.28.36s-.19.24-.29.35a10.74,10.74,0,0,1-1.31,1.21c-.93.73-1.93,1.33-2.91,2a31.17,31.17,0,0,1-3.05,1.69,8.38,8.38,0,0,1-1.67.55,4.42,4.42,0,0,1-.89.11,4.4,4.4,0,0,1-.89,0,1.73,1.73,0,0,1-.9-.35.92.92,0,0,1-.29-.47,1.14,1.14,0,0,1,0-.52A2.53,2.53,0,0,1,6,14.49a4.46,4.46,0,0,1,.58-.72,5.7,5.7,0,0,1,.71-.59,2.91,2.91,0,0,1,.89-.42,1.15,1.15,0,0,1,.61,0,.79.79,0,0,1,.33.2,1.08,1.08,0,0,1,.19.31,1.09,1.09,0,0,1,0,.62,2.3,2.3,0,0,1-.18.5A5.94,5.94,0,0,1,8,15.85l-.33.31-.33.28c-.23.2-.46.39-.7.56A11.37,11.37,0,0,1,5.1,18a7.76,7.76,0,0,1-1.68.64c-.15,0-.3.05-.45.08l-.46,0a3.29,3.29,0,0,1-.93-.11,2.22,2.22,0,0,1-.84-.42,2,2,0,0,1-.55-.76.87.87,0,0,1-.07-.17c0-.05,0-.11,0-.17l0-.17,0-.17c0-.06,0-.12,0-.18v-.17C0,16.27,0,16.16,0,16.05Z"/></g></g></g></g></g></g></svg>